<?xml version="1.0" encoding="utf-8"?><!-- Uploaded to: SVG Repo, www.svgrepo.com, Generator: SVG Repo Mixer Tools -->
<svg fill="#000000" width="800px" height="800px" viewBox="0 0 1024 1024" xmlns="http://www.w3.org/2000/svg"><path d="M282.9 210.154V98.487c0-31.769 25.759-57.528 57.528-57.528h347.197c31.769 0 57.528 25.759 57.528 57.528v111.667c0 11.311 9.169 20.48 20.48 20.48s20.48-9.169 20.48-20.48V98.487c0-54.39-44.098-98.488-98.488-98.488H340.428c-54.39 0-98.488 44.098-98.488 98.488v111.667c0 11.311 9.169 20.48 20.48 20.48s20.48-9.169 20.48-20.48z"/><path d="M826.467 412.823c22.625 0 40.96-18.335 40.96-40.96v-98.775c0-22.625-18.335-40.96-40.96-40.96H199.953c-22.625 0-40.96 18.335-40.96 40.96v98.775c0 22.625 18.335 40.96 40.96 40.96h626.514zm0 40.96H199.953c-45.246 0-81.92-36.674-81.92-81.92v-98.775c0-45.246 36.674-81.92 81.92-81.92h626.514c45.246 0 81.92 36.674 81.92 81.92v98.775c0 45.246-36.674 81.92-81.92 81.92zm-509.986 42.305v30.095c0 27.057-21.929 48.988-48.978 48.988h-6.748c-27.058 0-48.988-21.93-48.988-48.988v-30.382c0-11.311-9.169-20.48-20.48-20.48s-20.48 9.169-20.48 20.48v30.382c0 49.68 40.268 89.948 89.948 89.948h6.748c49.672 0 89.938-40.27 89.938-89.948v-30.095c0-11.311-9.169-20.48-20.48-20.48s-20.48 9.169-20.48 20.48zm495.095 0v30.095c0 27.057-21.929 48.988-48.978 48.988h-6.748c-27.058 0-48.988-21.93-48.988-48.988v-30.382c0-11.311-9.169-20.48-20.48-20.48s-20.48 9.169-20.48 20.48v30.382c0 49.68 40.268 89.948 89.948 89.948h6.748c49.672 0 89.938-40.27 89.938-89.948v-30.095c0-11.311-9.169-20.48-20.48-20.48s-20.48 9.169-20.48 20.48z"/><path d="M352.587 322.472c0 25.446-20.634 46.08-46.08 46.08s-46.08-20.634-46.08-46.08c0-25.446 20.634-46.08 46.08-46.08s46.08 20.634 46.08 46.08zm414.905 0c0 25.446-20.634 46.08-46.08 46.08s-46.08-20.634-46.08-46.08c0-25.446 20.634-46.08 46.08-46.08s46.08 20.634 46.08 46.08zm-333.778 20.48H592.7c11.311 0 20.48-9.169 20.48-20.48s-9.169-20.48-20.48-20.48H433.714c-11.311 0-20.48 9.169-20.48 20.48s9.169 20.48 20.48 20.48zm-36.809 313.671H212.538l-85.025-85.025c-29.154-29.154-76.435-29.154-105.589 0-29.216 29.277-29.196 76.506-.051 105.65L128.83 784.205c14.304 14.304 33.481 21.954 53.336 21.811.115.006 158.675.018 158.675.018v196.71c0 11.311 9.169 20.48 20.48 20.48s20.48-9.169 20.48-20.48v-217.19c0-11.311-9.169-20.48-20.48-20.48H182.756c-9.798.093-18.472-3.341-24.963-9.833L50.836 648.284c-13.168-13.168-13.168-34.502-.004-47.659 13.269-13.223 34.577-13.205 47.718-.065l91.023 91.023a20.48 20.48 0 0014.482 5.998h191.947c.288.022 19.652.092 19.652.092 18.672 0 33.812 15.141 33.812 33.812v271.258c0 11.311 9.169 20.48 20.48 20.48s20.48-9.169 20.48-20.48V731.485c0-41.294-33.479-74.772-74.772-74.772h-16.73c-.401-.028-.947-.05-2.019-.092zm210.439.092c-41.294 0-74.772 33.479-74.772 74.772v271.258c0 11.311 9.169 20.48 20.48 20.48s20.48-9.169 20.48-20.48V731.487c0-18.672 15.141-33.812 33.812-33.812h17.869l1.54-.092h192.191a20.484 20.484 0 0014.482-5.998l91.023-91.023c13.141-13.141 34.449-13.158 47.611-.052 13.271 13.275 13.271 34.609.103 47.776L865.206 755.243c-6.492 6.492-15.165 9.926-24.259 9.814-2.542.102-2.542.102-3.168.201.326-.064.326-.064 2.69-.182h-178.79c-11.311 0-20.48 9.169-20.48 20.48v217.19c0 11.311 9.169 20.48 20.48 20.48s20.48-9.169 20.48-20.48v-196.71h158.31c20.065.186 39.339-7.468 53.701-21.829l106.957-106.957c29.144-29.144 29.165-76.373.057-105.532-29.262-29.272-76.543-29.272-105.697-.118l-85.025 85.025H626.095c-1.206.048-1.747.069-2.164.103l-16.586-.011z"/></svg>