<?xml version="1.0" encoding="iso-8859-1"?>
<!-- Uploaded to: SVG Repo, www.svgrepo.com, Generator: SVG Repo Mixer Tools -->
<svg fill="#000000" height="800px" width="800px" version="1.1" id="Layer_1" xmlns="http://www.w3.org/2000/svg" xmlns:xlink="http://www.w3.org/1999/xlink" 
	 viewBox="0 0 512 512" xml:space="preserve">
<g>
	<g>
		<path d="M284.139,299.528c-3.213-3.215-8.423-3.214-11.638,0c-4.62,4.62-10.765,7.166-17.299,7.166s-12.679-2.545-17.301-7.166
			c-3.214-3.214-8.424-3.214-11.637,0c-3.214,3.214-3.214,8.424,0,11.637c7.73,7.73,18.006,11.987,28.937,11.987
			c10.931,0,21.209-4.257,28.939-11.987C287.354,307.951,287.354,302.74,284.139,299.528z"/>
	</g>
</g>
<g>
	<g>
		<path d="M206.358,220.354c-4.545,0-8.229,3.684-8.229,8.229v13.162c0,4.545,3.684,8.229,8.229,8.229
			c4.545,0,8.229-3.684,8.229-8.229v-13.162C214.587,224.039,210.902,220.354,206.358,220.354z"/>
	</g>
</g>
<g>
	<g>
		<path d="M328.678,190.946c-13.581-13.582-35.682-13.582-49.264,0c-3.215,3.214-3.215,8.423-0.001,11.637
			c3.215,3.214,8.425,3.214,11.637,0c7.166-7.165,18.826-7.165,25.991,0c1.606,1.607,3.713,2.411,5.818,2.411
			s4.212-0.803,5.82-2.411C331.892,199.369,331.892,194.159,328.678,190.946z"/>
	</g>
</g>
<g>
	<g>
		<path d="M230.991,190.946c-13.581-13.582-35.682-13.583-49.265,0c-3.214,3.214-3.214,8.424,0,11.637
			c3.214,3.214,8.424,3.214,11.637,0c3.471-3.472,8.086-5.383,12.995-5.383c4.909,0,9.524,1.911,12.995,5.383
			c1.606,1.606,3.713,2.411,5.818,2.411s4.212-0.803,5.82-2.411C234.205,199.369,234.205,194.159,230.991,190.946z"/>
	</g>
</g>
<g>
	<g>
		<path d="M304.046,220.354c-4.546,0-8.229,3.684-8.229,8.229v13.162c0,4.545,3.683,8.229,8.229,8.229s8.229-3.684,8.229-8.229
			v-13.162C312.275,224.039,308.591,220.354,304.046,220.354z"/>
	</g>
</g>
<g>
	<g>
		<path d="M171.941,354.9c-2.359-3.884-7.42-5.122-11.305-2.763c-20.822,12.642-33.253,34.714-33.253,59.041v92.592
			c0,4.545,3.684,8.229,8.229,8.229h24.937c4.545,0,8.229-3.684,8.229-8.229c0-4.545-3.684-8.229-8.229-8.229h-16.708v-84.363
			c0-18.528,9.471-35.341,25.336-44.973C173.062,363.847,174.299,358.785,171.941,354.9z"/>
	</g>
</g>
<g>
	<g>
		<path d="M267.819,215.987c-4.546,0-8.229,3.684-8.229,8.229v38.95c0,2.42-1.969,4.389-4.389,4.389s-4.389-1.968-4.389-4.389
			v-38.95c0-4.545-3.684-8.229-8.229-8.229c-4.545,0-8.229,3.684-8.229,8.229v38.95c0,11.495,9.352,20.847,20.847,20.847
			c11.495,0,20.847-9.351,20.847-20.847v-38.95C276.048,219.672,272.365,215.987,267.819,215.987z"/>
	</g>
</g>
<g>
	<g>
		<path d="M255.197,0C165.483,0,92.494,72.988,92.494,162.703c0,23.353,4.853,45.874,14.401,66.979
			c0.31,14.907,10.19,27.464,23.876,31.633c-1.301,30.367,12.788,59.831,37.524,77.802l45.039,32.723
			c12.521,9.097,27.194,13.646,41.868,13.646s29.347-4.549,41.868-13.646l45.04-32.723c24.737-17.972,38.825-47.437,37.523-77.805
			c13.686-4.172,23.563-16.723,23.876-31.624c9.548-21.107,14.402-43.63,14.402-66.984C417.912,72.988,344.918,0,255.197,0z
			 M132.287,244.162c-5.355-2.961-8.952-8.657-8.952-15.202c0-7.709,5.053-14.253,12.016-16.516L132.287,244.162z M332.436,325.802
			l-45.04,32.723c-19.257,13.99-45.132,13.991-64.389,0l-45.039-32.724c-21.346-15.509-33.03-41.458-30.492-67.721l7.812-80.839
			c0.681-7.056,2.121-13.95,4.22-20.6c9.717-3.712,19.71-6.823,29.895-9.337c10.22,16.045,35.249,26.744,64.337,26.744
			c29.628,0,54.799-10.948,64.739-27.371c11.06,2.615,21.898,5.948,32.417,9.966c2.099,6.65,3.537,13.542,4.22,20.598l7.812,80.839
			C365.466,284.345,353.782,310.294,332.436,325.802z M168.69,136.014c5.086-8.643,11.464-16.558,19.033-23.431
			c18.511-16.809,42.475-26.065,67.479-26.065s48.968,9.257,67.479,26.065c7.57,6.874,13.948,14.789,19.033,23.432
			C286.334,118.588,224.078,118.588,168.69,136.014z M300.464,143.076c-9.726,9.222-29.281,14.515-46.723,14.515
			c-17.052,0-36.318-5.134-46.234-14.091C238.08,138.163,269.831,138.015,300.464,143.076z M378.116,244.16l-3.064-31.712
			c6.965,2.265,12.016,8.807,12.016,16.513C387.068,235.503,383.472,241.198,378.116,244.16z M394.834,206.354
			c-5.419-6.018-12.961-10.084-21.436-11.013l-1.903-19.682c-2.799-28.968-16.207-55.697-37.752-75.261
			c-21.546-19.564-49.44-30.339-78.542-30.339c-29.102,0-56.997,10.774-78.543,30.339c-21.546,19.564-34.953,46.292-37.752,75.261
			l-1.901,19.68c-8.475,0.926-16.017,4.992-21.435,11.01c-4.393-14.038-6.617-28.65-6.617-43.648
			c-0.001-80.641,65.605-146.245,146.244-146.245c80.645,0,146.255,65.605,146.255,146.245
			C401.452,177.702,399.228,192.315,394.834,206.354z"/>
	</g>
</g>
<g>
	<g>
		<path d="M299.812,439.666c2.318,1.387,5.171,1.547,7.628,0.43c2.46-1.118,4.214-3.371,4.694-6.029l9.767-54.081
			c0.81-4.472-2.161-8.752-6.634-9.56c-4.476-0.806-8.752,2.163-9.561,6.635l-7.654,42.376l-38.622-23.1
			c-0.031-0.019-0.064-0.03-0.094-0.048c-0.584-0.34-1.211-0.609-1.874-0.799c-0.074-0.021-0.148-0.038-0.222-0.057
			c-0.256-0.065-0.516-0.117-0.781-0.158c-0.084-0.013-0.168-0.029-0.252-0.038c-0.328-0.039-0.662-0.067-1.001-0.067h-0.001
			c-0.339,0-0.67,0.026-0.998,0.067c-0.086,0.011-0.171,0.026-0.257,0.039c-0.262,0.041-0.52,0.092-0.775,0.157
			c-0.076,0.02-0.153,0.037-0.228,0.058c-0.662,0.189-1.288,0.458-1.87,0.797c-0.031,0.019-0.065,0.031-0.095,0.048l-38.623,23.1
			l-7.654-42.376c-0.808-4.472-5.087-7.443-9.56-6.635c-4.472,0.808-7.443,5.088-6.635,9.56l9.767,54.081
			c0.481,2.659,2.234,4.912,4.693,6.029c1.085,0.493,2.246,0.737,3.405,0.737c1.467,0,2.928-0.392,4.224-1.166l36.379-21.757v77.633
			h-58.998c-4.545,0-8.229,3.684-8.229,8.229c0,4.545,3.684,8.229,8.229,8.229H311.39c4.546,0,8.229-3.684,8.229-8.229
			c0-4.545-3.683-8.229-8.229-8.229h-47.956v-77.633L299.812,439.666z"/>
	</g>
</g>
<g>
	<g>
		<path d="M255.203,29.709c-4.546,0-8.229,3.684-8.229,8.229v14.811c0,4.545,3.684,8.229,8.229,8.229
			c4.545,0,8.229-3.684,8.229-8.229V37.938C263.432,33.393,259.749,29.709,255.203,29.709z"/>
	</g>
</g>
<g>
	<g>
		<path d="M468.768,349.074h-11.714v-19.188c0-4.545-3.683-8.229-8.229-8.229s-8.229,3.684-8.229,8.229v19.188h-45.717v-19.188
			c0-4.545-3.683-8.229-8.229-8.229s-8.229,3.684-8.229,8.229v19.188h-11.715c-16.781,0-30.432,13.652-30.432,30.433v124.264
			c0,4.545,3.683,8.229,8.229,8.229h146.468c4.546,0,8.229-3.684,8.229-8.229V379.507
			C499.202,362.726,485.548,349.074,468.768,349.074z M352.733,408.227h56.776v32.659h-56.776V408.227z M482.743,495.542h-130.01
			v-38.198h130.01V495.542z M482.744,391.77h-17.174c-4.546,0-8.229,3.684-8.229,8.229c0,4.545,3.683,8.229,8.229,8.229h17.174
			v32.659h-56.777v-32.659h12.172c4.546,0,8.229-3.684,8.229-8.229c0-4.545-3.683-8.229-8.229-8.229h-85.406v-12.263
			c-0.001-7.706,6.268-13.975,13.974-13.975h102.061c7.706,0,13.975,6.269,13.975,13.975V391.77z"/>
	</g>
</g>
<g>
	<g>
		<path d="M428.709,370.666h-21.944c-4.546,0-8.229,3.684-8.229,8.229s3.684,8.229,8.229,8.229h21.944
			c4.546,0,8.229-3.684,8.229-8.229S433.255,370.666,428.709,370.666z"/>
	</g>
</g>
<g>
	<g>
		<path d="M71.65,273.812c-32.45,0-58.85,26.401-58.85,58.85c0,29.656,22.055,54.246,50.621,58.262v71.356
			c0,4.545,3.684,8.229,8.229,8.229c4.545,0,8.229-3.684,8.229-8.229v-71.356c28.567-4.016,50.621-28.606,50.621-58.262
			C130.5,300.213,104.099,273.812,71.65,273.812z M71.65,375.055c-23.375,0-42.392-19.018-42.392-42.392S48.275,290.27,71.65,290.27
			c23.375,0,42.392,19.018,42.392,42.392S95.024,375.055,71.65,375.055z"/>
	</g>
</g>
<g>
	<g>
		<path d="M93.968,324.433c-4.545,0-8.229,3.684-8.229,8.229c0,7.769-6.32,14.089-14.089,14.089s-14.089-6.32-14.089-14.089
			s6.32-14.089,14.089-14.089c1.906,0,3.75,0.371,5.482,1.103c4.185,1.771,9.015-0.187,10.784-4.372
			c1.771-4.185-0.187-9.013-4.372-10.784c-3.77-1.595-7.771-2.404-11.893-2.404c-16.844,0-30.547,13.703-30.547,30.547
			s13.703,30.547,30.547,30.547s30.547-13.703,30.547-30.547C102.197,328.118,98.512,324.433,93.968,324.433z"/>
	</g>
</g>
<g>
	<g>
		<circle cx="466.375" cy="476.907" r="8.229"/>
	</g>
</g>
<g>
	<g>
		<circle cx="369.086" cy="476.907" r="8.229"/>
	</g>
</g>
<g>
	<g>
		<circle cx="282.386" cy="478.981" r="8.229"/>
	</g>
</g>
<g>
	<g>
		<circle cx="282.386" cy="450.454" r="8.229"/>
	</g>
</g>
<g>
	<g>
		<circle cx="228.02" cy="478.981" r="8.229"/>
	</g>
</g>
<g>
	<g>
		<circle cx="228.02" cy="450.454" r="8.229"/>
	</g>
</g>
</svg>