<!DOCTYPE svg PUBLIC "-//W3C//DTD SVG 1.1//EN" "http://www.w3.org/Graphics/SVG/1.1/DTD/svg11.dtd">
<!-- Uploaded to: SVG Repo, www.svgrepo.com, Transformed by: SVG Repo Mixer Tools -->
<svg width="256px" height="256px" viewBox="-34.68 -34.68 416.11 416.11" xmlns="http://www.w3.org/2000/svg" fill="#000000" stroke="#000000" stroke-width="3.8142720000000003">
<g id="SVGRepo_bgCarrier" stroke-width="0"/>
<g id="SVGRepo_tracerCarrier" stroke-linecap="round" stroke-linejoin="round" stroke="#CCCCCC" stroke-width="14.563584">
<defs>
<style>.a{fill:#ffffff;}.b{fill:#211715;}.c{fill:#ffffff;}.d{fill:#ffffff;}</style>
</defs>
<path class="a" d="M204.734,288.077c12.586-11.114,26.217-23.011,38.249-33.246,30.614,0,90.808,0,101.346,0-11.951,10.139-25.66,22.1-38.281,33.246C306.569,288.077,214.5,288.079,204.734,288.077Z"/>
<path class="b" d="M206.431,289.774Q225.426,273,244.68,256.528l-1.7.7H344.329l-1.7-4.1c-12.886,10.936-25.613,22.06-38.281,33.246-1.6,1.408-.3,4.1,1.7,4.1h0c3.088,0,3.093-4.8,0-4.8H204.734c-3.089,0-3.094,4.8,0,4.8h97.524c1.19,0,2.432.1,3.619,0,.056,0,.116,0,.173,0v-4.8h0l1.7,4.1c12.668-11.186,25.395-22.31,38.281-33.246,1.633-1.385.268-4.1-1.7-4.1H244.009a4.248,4.248,0,0,0-2.237.328,16.457,16.457,0,0,0-2.152,1.794q-18.447,15.733-36.583,31.827C200.716,288.429,204.122,291.813,206.431,289.774Z"/>
<path class="c" d="M274.531,200.574c-9.7,0-19.341,5.178-23.8,13.815-5.521,10.7-2.729,21.964,2.8,31.917a176.745,176.745,0,0,0,17.89,25.873l1,1.226a2.717,2.717,0,0,0,4.207,0l1-1.226a176.745,176.745,0,0,0,17.89-25.873c5.532-9.953,8.324-21.218,2.8-31.917C293.873,205.752,284.316,200.574,274.531,200.574Z"/>
<path class="b" d="M274.531,198.174c-13.41.092-25.749,9.009-28.545,22.392-3.139,15.026,5.989,29.124,14.238,40.844,2.131,3.027,4.358,5.985,6.645,8.895q1.464,1.864,2.965,3.7a7.541,7.541,0,0,0,2.418,2.254,5.179,5.179,0,0,0,4.844-.142,8.576,8.576,0,0,0,2.209-2.2q3.386-4.151,6.593-8.441a148.051,148.051,0,0,0,12.342-19.137c3.366-6.378,5.786-13.546,5.459-20.84a28.089,28.089,0,0,0-9.556-20.143,30.652,30.652,0,0,0-19.612-7.176c-3.089-.021-3.092,4.779,0,4.8a26.048,26.048,0,0,1,14.985,4.809,22.88,22.88,0,0,1,8.932,14.059c1.264,6.073-.058,12.4-2.424,18.039-2.616,6.233-6.469,12.062-10.289,17.611q-2.843,4.131-5.909,8.1-1.487,1.929-3.021,3.822a25.38,25.38,0,0,1-1.84,2.258c-.428.416-.418.42-.839.034a17.974,17.974,0,0,1-1.58-1.936q-3.114-3.843-6.05-7.825a154.215,154.215,0,0,1-11.1-17.246c-3.032-5.555-5.3-11.735-5.255-18.136a23.412,23.412,0,0,1,7.869-17.54,25.534,25.534,0,0,1,16.525-6.051C277.619,202.953,277.626,198.153,274.531,198.174Z"/>
<path class="a" d="M274.531,216.915a9.228,9.228,0,0,0-9.411,9.354c0,5.642,3.929,9.528,9.411,9.528,5.694,0,9.412-3.922,9.412-9.528A9.221,9.221,0,0,0,274.531,216.915Z"/>
<path class="b" d="M274.531,214.515a11.811,11.811,0,0,0-11.281,8.206,12.168,12.168,0,0,0,3.822,12.987,12.645,12.645,0,0,0,13.673.918c4.333-2.476,6.135-7.593,5.416-12.369a11.731,11.731,0,0,0-11.63-9.742c-3.09-.039-3.091,4.761,0,4.8a7.056,7.056,0,0,1,4.5,1.5c-.347-.268.248.233.25.235q.175.161.341.332c.166.17.326.346.477.53-.24-.291.075.1.126.177a6.164,6.164,0,0,1,1.03,2.124,8.022,8.022,0,0,1-.036,4.49q-.081.282-.178.56c-.012.035-.314.717-.105.281a9.748,9.748,0,0,1-.539.989,5.283,5.283,0,0,1-1.367,1.5c.376-.316-.189.127-.227.152-.124.083-.251.162-.379.238-.2.115-.4.213-.6.321-.625.337.231-.075-.166.077a9.326,9.326,0,0,1-1.246.38c-.159.037-.319.066-.478.1q-.437.069-.1.023-.255.029-.51.045a11.835,11.835,0,0,1-1.305.014c-.252-.012-.507-.028-.757-.061.118.016.365.08-.1-.026-.431-.1-.857-.191-1.278-.331-.185-.062-.372-.125-.551-.2.4.172-.288-.16-.365-.2a7.566,7.566,0,0,1-1.051-.674c.293.229-.417-.4-.528-.517a6.466,6.466,0,0,1-1.189-1.747c-.337-.62.1.385-.128-.291-.053-.151-.108-.3-.156-.453a9.706,9.706,0,0,1-.338-1.437c.017.114.025.379-.01-.122-.018-.262-.038-.523-.044-.786-.005-.215,0-.429,0-.644,0-.09.076-.887.02-.473a6.707,6.707,0,0,1,2.229-4.354,3.554,3.554,0,0,1,.845-.647c.206-.129.418-.251.634-.363.025-.014.677-.31.326-.167a8.7,8.7,0,0,1,1.458-.437c-.025,0,.809-.128.4-.079a10.424,10.424,0,0,1,1.089-.057C277.617,219.276,277.626,214.475,274.531,214.515Z"/>
<path class="d" d="M105.4,244.1a37.693,37.693,0,0,0-9.8-15.639c-7.073-6.3-16.314-9.862-26.324-11.226a58.681,58.681,0,0,0-7.141-.473,57.57,57.57,0,0,0-7.014.473c-10.01,1.364-19.2,4.778-26.277,11.082-5.02,4.475-9.27,13.219-10.717,19.787-1.925,8.738-2.588,11.729-3.062,26.622h94.049c-.258-13.019-.9-18.593-2.884-27.6C106.011,246.135,105.732,245.123,105.4,244.1Z"/>
<path class="b" d="M54.492,208.538H69.776a2.4,2.4,0,0,0,0-4.8H54.492a2.4,2.4,0,1,0,0,4.8Z"/>
<path class="b" d="M59.734,207.13v7.054a2.4,2.4,0,0,0,4.8,0V207.13a2.4,2.4,0,0,0-4.8,0Z"/>
<path class="b" d="M17.869,265.561a91.7,91.7,0,0,1,1.778-13.172,52.714,52.714,0,0,1,4.119-12.869,31.232,31.232,0,0,1,7.989-10.543,40.507,40.507,0,0,1,12.621-6.805,54.6,54.6,0,0,1,28.441-1.913c9.194,1.876,18.762,6.033,24.588,13.692,6.839,8.991,8.376,20.638,9,31.61.173,3.071,4.974,3.091,4.8,0-.6-10.715-2.025-22.081-7.817-31.354-5.671-9.081-15.061-14.759-25.225-17.6a59.8,59.8,0,0,0-31.712-.082,49.559,49.559,0,0,0-14.393,6.32,34.093,34.093,0,0,0-10.523,10.8c-5.818,9.5-7.755,20.955-8.461,31.917a2.4,2.4,0,0,0,4.8,0Z"/>
<path class="b" d="M39.647,264.135H84.621c3.089,0,3.094-4.8,0-4.8H39.647c-3.088,0-3.093,4.8,0,4.8Z"/>
<path class="d" d="M7.7,287.865c-2.214,0-3.825-.011-4.7-.018a.643.643,0,0,1-.642-.648,38.723,38.723,0,0,1,1.925-10.215,4.686,4.686,0,0,1,4.463-3.257H115.25a4.68,4.68,0,0,1,4.571,3.678l2.029,9.255a1.048,1.048,0,0,1-.111.97.684.684,0,0,1-.458.221C109.36,287.851,29.439,287.912,7.7,287.865Z"/>
<path class="b" d="M7.7,285.465q-1.426,0-2.852-.008l-.92,0-.508,0q-.613-.03.335.133l.861.861c.395.59.111.448.175-.059.03-.231.032-.466.053-.7.043-.492.1-.98.176-1.467.214-1.378.508-2.745.857-4.1.448-1.733.729-3.854,2.871-4,.339-.022.687,0,1.026,0H109.28c1.9,0,3.8-.017,5.694,0a2.436,2.436,0,0,1,2.555,2.018c.579,2.377,1.049,4.785,1.573,7.174a8.827,8.827,0,0,1,.389,2.026l.327-1.211-.151.284.861-.861c.468-.348.921-.08.274-.106-.18-.008-.361,0-.541,0h-4.319l-8.541,0-23.84.013q-27.282.014-54.565.013-10.649,0-21.3-.017c-3.089-.007-3.093,4.793,0,4.8q13.365.029,26.73.018,18.531,0,37.061-.009,16.931-.006,33.862-.016,5.733,0,11.466-.006h3.678c1.284,0,2.571-.2,3.317-1.41a4.576,4.576,0,0,0,.188-3.574l-1.474-6.722c-.572-2.607-1.391-5.045-3.959-6.387-1.763-.921-3.569-.831-5.463-.831H13.767c-1.557,0-3.114-.009-4.67,0a7.654,7.654,0,0,0-4.187,1.13c-2.073,1.344-2.858,3.433-3.484,5.714a44.894,44.894,0,0,0-1.31,6.78c-.233,2.028-.356,4.533,2.118,5.184,1.664.438,3.763.126,5.463.13C10.786,290.272,10.791,285.472,7.7,285.465Z"/>
<path class="d" d="M277.312,20.583c-16.422.025-31.337.044-34.764-.009h-12.34c4.024,14.1,9.635,33.415,13.618,46.981,6.041,0,13.139,0,13.139,0,4.98,0,44.881-.169,56.844-.2a3.151,3.151,0,0,0,3.067-2.443c1.827-7.868,7.092-30.75,9.292-40.488a3.159,3.159,0,0,0-3.071-3.855C314.358,20.524,294.964,20.556,277.312,20.583Z"/>
<path class="b" d="M242.548,22.974c9.671.146,19.351.031,29.022.018q20.719-.03,41.439-.045,3.816,0,7.631.012c.74,0,2.229-.269,2.858.129.835.529-.041,2.451-.212,3.2q-2.57,11.31-5.177,22.611-1.231,5.35-2.466,10.7-.457,1.983-.918,3.967c-.3,1.31-.583,1.385-1.865,1.388q-8.7.024-17.41.06-18.4.069-36.8.134l-1.683,0c-3.088,0-3.094,4.8,0,4.8,11.538,0,23.076-.078,34.613-.122q9.693-.036,19.387-.068a23.035,23.035,0,0,0,3.817-.112,5.72,5.72,0,0,0,4.529-4.623q1.062-4.578,2.116-9.156,2.778-12.054,5.533-24.113.561-2.458,1.12-4.918c.48-2.118.959-4.21-.352-6.163-2.011-3-5.625-2.516-8.765-2.523-13.569-.03-27.137.007-40.706.028-11.392.017-22.785.082-34.177.007-.51,0-1.021-.007-1.532-.015-3.09-.047-3.091,4.753,0,4.8Z"/>
<path class="b" d="M249.31,45.514c7.651,0,15.3-.033,22.954-.055q15.012-.042,30.026-.087c2.721-.008,5.441-.02,8.162-.02,3.088,0,3.093-4.8,0-4.8-6.724,0-13.448.035-20.172.055q-15.4.045-30.8.087-5.085.014-10.169.02c-3.088,0-3.094,4.8,0,4.8Z"/>
<path class="b" d="M261.94,20.786c1.417,12.776,2.648,25.572,4.048,38.35.289,2.631.569,5.264.911,7.889a2.479,2.479,0,0,0,2.4,2.4,2.413,2.413,0,0,0,2.4-2.4c-1.678-12.864-2.813-25.812-4.161-38.714-.262-2.509-.52-5.018-.8-7.525a2.471,2.471,0,0,0-2.4-2.4,2.416,2.416,0,0,0-2.4,2.4Z"/>
<path class="b" d="M292.408,29.576q-1.232,15.351-2.4,30.707c-.177,2.364-.352,4.728-.511,7.093a2.4,2.4,0,1,0,4.8,0c.695-10.377,1.556-20.745,2.381-31.113q.266-3.343.534-6.687a2.42,2.42,0,0,0-2.4-2.4,2.448,2.448,0,0,0-2.4,2.4Z"/>
<path class="b" d="M210.1,4.9q3.024,0,6.048.007l3.389,0a17.675,17.675,0,0,1,3.229,0c1.145.23,1.41,3.069,1.691,4.085,1.28,4.63,2.6,9.25,3.917,13.869q5.215,18.251,10.55,36.466,2.25,7.705,4.521,15.406.811,2.748,1.631,5.5a13.432,13.432,0,0,0,1,2.854,5.752,5.752,0,0,0,5.069,2.8c10.193.167,20.4.036,30.6.054q14.562.025,29.125.048h1.264c3.088,0,3.094-4.8,0-4.8q-12.929,0-25.857-.041L253.415,81.1c-.753,0-1.519.039-2.27,0-.906-.051-.969-.547-1.2-1.326q-.769-2.563-1.527-5.131-2.229-7.532-4.428-15.072-5.334-18.253-10.578-36.532-2.055-7.18-4.069-14.371c-.438-1.577-.769-3.233-1.323-4.774-1.764-4.9-7.751-3.775-11.874-3.782Q213.119.1,210.1.1c-3.089,0-3.094,4.8,0,4.8Z"/>
<path class="a" d="M258.852,93.006a7.406,7.406,0,0,1,7.553,7.507c0,4.686-2.922,7.648-7.554,7.648-4.739,0-7.553-2.962-7.553-7.648A7.4,7.4,0,0,1,258.852,93.006Z"/>
<path class="a" d="M303.705,93.006a7.406,7.406,0,0,1,7.553,7.507c0,4.686-2.921,7.648-7.553,7.648-4.74,0-7.554-2.962-7.554-7.648A7.4,7.4,0,0,1,303.705,93.006Z"/>
<path class="b" d="M258.852,95.406c.22,0,.439.02.659.026.68.019-.445-.116.207.025a9.571,9.571,0,0,1,1,.256c.087.028.687.291.173.049.119.056.238.112.354.173.174.09.343.188.509.292.105.066.726.574.3.191.239.213.475.424.692.66.006,0,.418.476.181.194s.142.207.15.219c.19.284.314.646.519.913s-.16-.5.021.046c.082.246.168.488.233.74.045.173.168,1.119.123.522.025.338.045.674.039,1.013q-.006.311-.03.621c-.008.107-.122.755-.009.155a10.594,10.594,0,0,1-.256,1.112c-.054.175-.12.345-.178.519.024-.073.225-.464.031-.08-.158.314-.338.607-.515.909-.063.109-.278.349.072-.072-.109.131-.216.262-.333.386-.1.1-.2.2-.3.3s-.62.464-.1.112c-.238.162-.473.323-.726.461-.154.085-.313.158-.471.235.557-.271.026-.02-.094.02a7.744,7.744,0,0,1-.895.245c-.1.022-.739.118-.126.041q-.3.037-.6.055a10.724,10.724,0,0,1-1.255,0c-.137-.008-.273-.022-.409-.032-.657-.053.477.124-.148-.026-.308-.074-.616-.133-.918-.226-.175-.054-.345-.119-.517-.181.582.209-.021-.022-.15-.09a8.1,8.1,0,0,1-.8-.5c.53.366-.166-.173-.279-.289s-.22-.257-.338-.376c.345.345.151.214.066.081-.22-.344-.415-.686-.6-1.05.036.07.178.491.037.08-.059-.173-.122-.344-.174-.519-.09-.3-.147-.612-.216-.92-.14-.625.018.508-.021-.145-.012-.2-.033-.408-.041-.614a10.9,10.9,0,0,1,.034-1.226c-.04.531-.018.095.016-.049.051-.223.1-.447.159-.667.054-.187.119-.369.183-.553.2-.58-.23.4.064-.133.2-.365.434-.7.642-1.062.177-.3-.372.38.041-.035.18-.181.345-.373.533-.547.093-.087.192-.168.288-.252-.435.382.19-.124.3-.19q.207-.129.422-.244c.108-.058.758-.325.235-.13a8.339,8.339,0,0,1,1.168-.349c.086-.018.758-.1.195-.046.291-.027.58-.041.872-.045a2.4,2.4,0,1,0,0-4.8,9.947,9.947,0,0,0-9.566,7.11c-1.09,3.781.015,8.374,3.186,10.825a11.066,11.066,0,0,0,11.531.792c3.485-1.851,5.173-6,4.739-9.818a9.943,9.943,0,0,0-9.89-8.909,2.4,2.4,0,1,0,0,4.8Z"/>
<path class="b" d="M303.705,95.406c.22,0,.439.02.659.026.68.019-.444-.116.207.025a9.525,9.525,0,0,1,1,.256c.087.028.686.291.172.049.119.056.238.112.355.173.173.09.343.188.508.292.106.066.727.574.3.191.239.213.476.424.693.66,0,0,.418.476.181.194s.142.207.149.219c.19.284.314.646.519.913s-.16-.5.022.046c.081.246.167.488.233.74.045.173.167,1.119.123.522.025.338.045.674.038,1.013q0,.311-.03.621c-.008.107-.122.755-.009.155a10.114,10.114,0,0,1-.256,1.112c-.053.175-.119.345-.178.519.025-.073.226-.464.032-.08-.158.314-.338.607-.515.909-.063.109-.279.349.072-.072-.109.131-.217.262-.333.386-.1.1-.2.2-.3.3s-.619.464-.1.112a8.554,8.554,0,0,1-.726.461c-.154.085-.312.158-.47.235.557-.271.025-.02-.094.02a7.76,7.76,0,0,1-.9.245c-.1.022-.739.118-.125.041q-.3.037-.6.055a10.741,10.741,0,0,1-1.256,0c-.136-.008-.272-.022-.409-.032-.656-.053.477.124-.147-.026-.308-.074-.616-.133-.919-.226-.175-.054-.344-.119-.516-.181.581.209-.022-.022-.151-.09a8.2,8.2,0,0,1-.8-.5c.529.366-.166-.173-.279-.289s-.22-.257-.339-.376c.345.345.152.214.066.081-.22-.344-.415-.686-.6-1.05.036.07.177.491.036.08-.059-.173-.121-.344-.173-.519-.09-.3-.148-.612-.217-.92-.139-.625.018.508-.021-.145-.012-.2-.032-.408-.04-.614a10.9,10.9,0,0,1,.033-1.226c-.04.531-.017.095.016-.049.052-.223.1-.447.16-.667.053-.187.118-.369.182-.553.2-.58-.23.4.064-.133.2-.365.434-.7.643-1.062.176-.3-.372.38.04-.035.18-.181.345-.373.533-.547.094-.087.192-.168.288-.252-.434.382.191-.124.3-.19.138-.086.278-.167.422-.244.108-.058.757-.325.234-.13a8.352,8.352,0,0,1,1.169-.349c.085-.018.757-.1.194-.046.291-.027.58-.041.872-.045a2.4,2.4,0,1,0,0-4.8,9.948,9.948,0,0,0-9.566,7.11c-1.089,3.781.015,8.374,3.187,10.825a11.064,11.064,0,0,0,11.53.792c3.485-1.851,5.174-6,4.739-9.818a9.943,9.943,0,0,0-9.89-8.909,2.4,2.4,0,1,0,0,4.8Z"/>
<path class="a" d="M31.041,9.361l-14.884,0A6.47,6.47,0,0,0,9.684,15.84c.008,19.12.023,52.04.029,65.919a6.467,6.467,0,0,0,6.476,6.468c23.853-.01,66.129-.032,89.635-.04a6.471,6.471,0,0,0,6.472-6.478c-.008-20.441-.02-47.643-.028-65.911a6.469,6.469,0,0,0-6.477-6.47l-13.069,0"/>
<path class="b" d="M71.083,6.943,52.5,6.95c-3.088,0-3.093,4.8,0,4.8l18.579-.007c3.089,0,3.094-4.8,0-4.8Z"/>
<path class="c" d="M36.013,29.641l-4.954.009a3.1,3.1,0,0,0-2.121.879,3,3,0,0,0,0,4.242,3.116,3.116,0,0,0,2.121.879l4.954-.009a3.1,3.1,0,0,0,2.121-.879,3,3,0,0,0,0-4.242,3.116,3.116,0,0,0-2.121-.879Z"/>
<path class="b" d="M54.524,29.641l-4.954.009a3.1,3.1,0,0,0-2.121.879,3,3,0,0,0,0,4.242,3.116,3.116,0,0,0,2.121.879l4.954-.009a3.1,3.1,0,0,0,2.121-.879,3,3,0,0,0,0-4.242,3.116,3.116,0,0,0-2.121-.879Z"/>
<path class="b" d="M73.035,29.641l-4.954.009a3.1,3.1,0,0,0-2.121.879,3,3,0,0,0,0,4.242,3.116,3.116,0,0,0,2.121.879l4.954-.009a3.1,3.1,0,0,0,2.121-.879,3,3,0,0,0,0-4.242,3.116,3.116,0,0,0-2.121-.879Z"/>
<path class="b" d="M91.546,29.641l-4.953.009a3.1,3.1,0,0,0-2.122.879,3,3,0,0,0,0,4.242,3.118,3.118,0,0,0,2.122.879l4.953-.009a3.1,3.1,0,0,0,2.121-.879,3,3,0,0,0,0-4.242,3.116,3.116,0,0,0-2.121-.879Z"/>
<path class="c" d="M36.013,47.456l-4.954.009a3.094,3.094,0,0,0-2.121.878,3,3,0,0,0,0,4.243,3.116,3.116,0,0,0,2.121.879l4.954-.009a3.1,3.1,0,0,0,2.121-.879,3,3,0,0,0,0-4.243,3.11,3.11,0,0,0-2.121-.878Z"/>
<path class="b" d="M54.524,47.456l-4.954.009a3.094,3.094,0,0,0-2.121.878,3,3,0,0,0,0,4.243,3.116,3.116,0,0,0,2.121.879l4.954-.009a3.1,3.1,0,0,0,2.121-.879,3,3,0,0,0,0-4.243,3.11,3.11,0,0,0-2.121-.878Z"/>
<path class="b" d="M73.035,47.456l-4.954.009a3.094,3.094,0,0,0-2.121.878,3,3,0,0,0,0,4.243,3.116,3.116,0,0,0,2.121.879l4.954-.009a3.1,3.1,0,0,0,2.121-.879,3,3,0,0,0,0-4.243,3.11,3.11,0,0,0-2.121-.878Z"/>
<path class="b" d="M91.546,47.456l-4.953.009a3.1,3.1,0,0,0-2.122.878,3,3,0,0,0,0,4.243,3.118,3.118,0,0,0,2.122.879l4.953-.009a3.1,3.1,0,0,0,2.121-.879,3,3,0,0,0,0-4.243,3.11,3.11,0,0,0-2.121-.878Z"/>
<path class="c" d="M36.013,65.27l-4.954.009a3.1,3.1,0,0,0-2.121.879,3,3,0,0,0,0,4.243,3.11,3.11,0,0,0,2.121.878l4.954-.009a3.094,3.094,0,0,0,2.121-.878,3,3,0,0,0,0-4.243,3.116,3.116,0,0,0-2.121-.879Z"/>
<path class="b" d="M54.524,65.27l-4.954.009a3.1,3.1,0,0,0-2.121.879,3,3,0,0,0,0,4.243,3.11,3.11,0,0,0,2.121.878l4.954-.009a3.094,3.094,0,0,0,2.121-.878,3,3,0,0,0,0-4.243,3.116,3.116,0,0,0-2.121-.879Z"/>
<path class="b" d="M73.035,65.27l-4.954.009a3.1,3.1,0,0,0-2.121.879,3,3,0,0,0,0,4.243,3.11,3.11,0,0,0,2.121.878l4.954-.009a3.094,3.094,0,0,0,2.121-.878,3,3,0,0,0,0-4.243,3.116,3.116,0,0,0-2.121-.879Z"/>
<path class="b" d="M91.546,65.27l-4.953.009a3.1,3.1,0,0,0-2.122.879,3,3,0,0,0,0,4.243,3.113,3.113,0,0,0,2.122.878l4.953-.009a3.094,3.094,0,0,0,2.121-.878,3,3,0,0,0,0-4.243,3.116,3.116,0,0,0-2.121-.879Z"/>
<path class="b" d="M31.041,6.961q-6.729,0-13.459,0c-2.325,0-4.524.208-6.486,1.6a9.014,9.014,0,0,0-3.789,6.764c-.173,2.207-.021,4.483-.02,6.7l0,7.178q0,7.77.007,15.539Q7.3,59.353,7.31,73.966l0,5.549c0,2.2-.023,4.323,1.008,6.344A8.871,8.871,0,0,0,14.2,90.4a31.981,31.981,0,0,0,6.7.223L83.075,90.6l14.661-.007,6.391,0c2.484,0,4.813-.164,6.887-1.695a9.017,9.017,0,0,0,3.673-6.84c.148-2.682.007-5.41.006-8.095q0-8.742-.008-17.483-.007-17.18-.014-34.36a61.867,61.867,0,0,0-.083-7.335,8.957,8.957,0,0,0-4.133-6.531,10.89,10.89,0,0,0-6.07-1.321l-6.126,0H92.722c-3.089,0-3.094,4.8,0,4.8q5.6,0,11.2,0c1.533,0,3.091-.157,4.382.844,1.625,1.258,1.568,3.056,1.569,4.921q.006,15.65.013,31.3,0,8.492.007,16.983c0,5.306.138,10.631.007,15.935a4.125,4.125,0,0,1-2.725,3.854c-1.639.581-3.824.225-5.549.226l-12.978,0-59.621.027c-4.183,0-8.368.032-12.552.006a4.216,4.216,0,0,1-4.025-2.412c-.632-1.433-.333-3.338-.334-4.874Q12.106,65.772,12.1,53q-.008-14.664-.013-29.327l0-6.362c0-1.792.01-3.5,1.563-4.7,1.377-1.069,3.1-.847,4.737-.847h6.63l6.026,0c3.088,0,3.094-4.8,0-4.8Z"/>
<path class="b" d="M80.518,4.234q0,4.776,0,9.553a2.4,2.4,0,1,0,4.8,0q0-4.776,0-9.553a2.4,2.4,0,1,0-4.8,0Z"/>
<path class="b" d="M38.037,4.234q0,4.776.005,9.553a2.4,2.4,0,1,0,4.8,0q0-4.776,0-9.553a2.4,2.4,0,0,0-4.8,0Z"/>
<path class="a" d="M106,42.6c-18.984,0-32.1,14.7-32.1,31.909,0,19.25,13.4,32.507,32.106,32.507,19.424,0,32.107-13.381,32.107-32.507C138.107,57.184,124.916,42.6,106,42.6Z"/>
<path class="b" d="M106,40.2a34.944,34.944,0,0,0-20.942,6.778,34.127,34.127,0,0,0-11.99,17.06c-4.178,13.382-.14,29.466,11.085,38.205,11.113,8.651,27.9,9.575,40.1,2.618,12.53-7.144,17.873-22.115,15.8-35.963A33.862,33.862,0,0,0,112,40.688a40.816,40.816,0,0,0-6-.49c-3.089-.015-3.093,4.785,0,4.8a30.449,30.449,0,0,1,18.237,5.9,28.851,28.851,0,0,1,10.11,14.525c3.536,11.51.365,25.324-9.088,32.993-9.241,7.5-24.043,8.228-34.417,2.526C80.028,95,74.854,82.262,76.575,70.2a28.923,28.923,0,0,1,24.343-24.825A32.248,32.248,0,0,1,106,45C109.087,44.983,109.094,40.183,106,40.2Z"/>
<path class="b" d="M106.018,77.216h10.968a2.4,2.4,0,0,0,0-4.8H106.018a2.4,2.4,0,0,0,0,4.8Z"/>
<path class="b" d="M103.618,58.191q0,8.3,0,16.606a2.4,2.4,0,0,0,4.8,0q-.013-8.3,0-16.606a2.4,2.4,0,0,0-4.8,0Z"/>
</g>
<g id="SVGRepo_iconCarrier">
<defs>
<style>.a{fill:#ffffff;}.b{fill:#211715;}.c{fill:#ffffff;}.d{fill:#ffffff;}</style>
</defs>
<path class="a" d="M204.734,288.077c12.586-11.114,26.217-23.011,38.249-33.246,30.614,0,90.808,0,101.346,0-11.951,10.139-25.66,22.1-38.281,33.246C306.569,288.077,214.5,288.079,204.734,288.077Z"/>
<path class="b" d="M206.431,289.774Q225.426,273,244.68,256.528l-1.7.7H344.329l-1.7-4.1c-12.886,10.936-25.613,22.06-38.281,33.246-1.6,1.408-.3,4.1,1.7,4.1h0c3.088,0,3.093-4.8,0-4.8H204.734c-3.089,0-3.094,4.8,0,4.8h97.524c1.19,0,2.432.1,3.619,0,.056,0,.116,0,.173,0v-4.8h0l1.7,4.1c12.668-11.186,25.395-22.31,38.281-33.246,1.633-1.385.268-4.1-1.7-4.1H244.009a4.248,4.248,0,0,0-2.237.328,16.457,16.457,0,0,0-2.152,1.794q-18.447,15.733-36.583,31.827C200.716,288.429,204.122,291.813,206.431,289.774Z"/>
<path class="c" d="M274.531,200.574c-9.7,0-19.341,5.178-23.8,13.815-5.521,10.7-2.729,21.964,2.8,31.917a176.745,176.745,0,0,0,17.89,25.873l1,1.226a2.717,2.717,0,0,0,4.207,0l1-1.226a176.745,176.745,0,0,0,17.89-25.873c5.532-9.953,8.324-21.218,2.8-31.917C293.873,205.752,284.316,200.574,274.531,200.574Z"/>
<path class="b" d="M274.531,198.174c-13.41.092-25.749,9.009-28.545,22.392-3.139,15.026,5.989,29.124,14.238,40.844,2.131,3.027,4.358,5.985,6.645,8.895q1.464,1.864,2.965,3.7a7.541,7.541,0,0,0,2.418,2.254,5.179,5.179,0,0,0,4.844-.142,8.576,8.576,0,0,0,2.209-2.2q3.386-4.151,6.593-8.441a148.051,148.051,0,0,0,12.342-19.137c3.366-6.378,5.786-13.546,5.459-20.84a28.089,28.089,0,0,0-9.556-20.143,30.652,30.652,0,0,0-19.612-7.176c-3.089-.021-3.092,4.779,0,4.8a26.048,26.048,0,0,1,14.985,4.809,22.88,22.88,0,0,1,8.932,14.059c1.264,6.073-.058,12.4-2.424,18.039-2.616,6.233-6.469,12.062-10.289,17.611q-2.843,4.131-5.909,8.1-1.487,1.929-3.021,3.822a25.38,25.38,0,0,1-1.84,2.258c-.428.416-.418.42-.839.034a17.974,17.974,0,0,1-1.58-1.936q-3.114-3.843-6.05-7.825a154.215,154.215,0,0,1-11.1-17.246c-3.032-5.555-5.3-11.735-5.255-18.136a23.412,23.412,0,0,1,7.869-17.54,25.534,25.534,0,0,1,16.525-6.051C277.619,202.953,277.626,198.153,274.531,198.174Z"/>
<path class="a" d="M274.531,216.915a9.228,9.228,0,0,0-9.411,9.354c0,5.642,3.929,9.528,9.411,9.528,5.694,0,9.412-3.922,9.412-9.528A9.221,9.221,0,0,0,274.531,216.915Z"/>
<path class="b" d="M274.531,214.515a11.811,11.811,0,0,0-11.281,8.206,12.168,12.168,0,0,0,3.822,12.987,12.645,12.645,0,0,0,13.673.918c4.333-2.476,6.135-7.593,5.416-12.369a11.731,11.731,0,0,0-11.63-9.742c-3.09-.039-3.091,4.761,0,4.8a7.056,7.056,0,0,1,4.5,1.5c-.347-.268.248.233.25.235q.175.161.341.332c.166.17.326.346.477.53-.24-.291.075.1.126.177a6.164,6.164,0,0,1,1.03,2.124,8.022,8.022,0,0,1-.036,4.49q-.081.282-.178.56c-.012.035-.314.717-.105.281a9.748,9.748,0,0,1-.539.989,5.283,5.283,0,0,1-1.367,1.5c.376-.316-.189.127-.227.152-.124.083-.251.162-.379.238-.2.115-.4.213-.6.321-.625.337.231-.075-.166.077a9.326,9.326,0,0,1-1.246.38c-.159.037-.319.066-.478.1q-.437.069-.1.023-.255.029-.51.045a11.835,11.835,0,0,1-1.305.014c-.252-.012-.507-.028-.757-.061.118.016.365.08-.1-.026-.431-.1-.857-.191-1.278-.331-.185-.062-.372-.125-.551-.2.4.172-.288-.16-.365-.2a7.566,7.566,0,0,1-1.051-.674c.293.229-.417-.4-.528-.517a6.466,6.466,0,0,1-1.189-1.747c-.337-.62.1.385-.128-.291-.053-.151-.108-.3-.156-.453a9.706,9.706,0,0,1-.338-1.437c.017.114.025.379-.01-.122-.018-.262-.038-.523-.044-.786-.005-.215,0-.429,0-.644,0-.09.076-.887.02-.473a6.707,6.707,0,0,1,2.229-4.354,3.554,3.554,0,0,1,.845-.647c.206-.129.418-.251.634-.363.025-.014.677-.31.326-.167a8.7,8.7,0,0,1,1.458-.437c-.025,0,.809-.128.4-.079a10.424,10.424,0,0,1,1.089-.057C277.617,219.276,277.626,214.475,274.531,214.515Z"/>
<path class="d" d="M105.4,244.1a37.693,37.693,0,0,0-9.8-15.639c-7.073-6.3-16.314-9.862-26.324-11.226a58.681,58.681,0,0,0-7.141-.473,57.57,57.57,0,0,0-7.014.473c-10.01,1.364-19.2,4.778-26.277,11.082-5.02,4.475-9.27,13.219-10.717,19.787-1.925,8.738-2.588,11.729-3.062,26.622h94.049c-.258-13.019-.9-18.593-2.884-27.6C106.011,246.135,105.732,245.123,105.4,244.1Z"/>
<path class="b" d="M54.492,208.538H69.776a2.4,2.4,0,0,0,0-4.8H54.492a2.4,2.4,0,1,0,0,4.8Z"/>
<path class="b" d="M59.734,207.13v7.054a2.4,2.4,0,0,0,4.8,0V207.13a2.4,2.4,0,0,0-4.8,0Z"/>
<path class="b" d="M17.869,265.561a91.7,91.7,0,0,1,1.778-13.172,52.714,52.714,0,0,1,4.119-12.869,31.232,31.232,0,0,1,7.989-10.543,40.507,40.507,0,0,1,12.621-6.805,54.6,54.6,0,0,1,28.441-1.913c9.194,1.876,18.762,6.033,24.588,13.692,6.839,8.991,8.376,20.638,9,31.61.173,3.071,4.974,3.091,4.8,0-.6-10.715-2.025-22.081-7.817-31.354-5.671-9.081-15.061-14.759-25.225-17.6a59.8,59.8,0,0,0-31.712-.082,49.559,49.559,0,0,0-14.393,6.32,34.093,34.093,0,0,0-10.523,10.8c-5.818,9.5-7.755,20.955-8.461,31.917a2.4,2.4,0,0,0,4.8,0Z"/>
<path class="b" d="M39.647,264.135H84.621c3.089,0,3.094-4.8,0-4.8H39.647c-3.088,0-3.093,4.8,0,4.8Z"/>
<path class="d" d="M7.7,287.865c-2.214,0-3.825-.011-4.7-.018a.643.643,0,0,1-.642-.648,38.723,38.723,0,0,1,1.925-10.215,4.686,4.686,0,0,1,4.463-3.257H115.25a4.68,4.68,0,0,1,4.571,3.678l2.029,9.255a1.048,1.048,0,0,1-.111.97.684.684,0,0,1-.458.221C109.36,287.851,29.439,287.912,7.7,287.865Z"/>
<path class="b" d="M7.7,285.465q-1.426,0-2.852-.008l-.92,0-.508,0q-.613-.03.335.133l.861.861c.395.59.111.448.175-.059.03-.231.032-.466.053-.7.043-.492.1-.98.176-1.467.214-1.378.508-2.745.857-4.1.448-1.733.729-3.854,2.871-4,.339-.022.687,0,1.026,0H109.28c1.9,0,3.8-.017,5.694,0a2.436,2.436,0,0,1,2.555,2.018c.579,2.377,1.049,4.785,1.573,7.174a8.827,8.827,0,0,1,.389,2.026l.327-1.211-.151.284.861-.861c.468-.348.921-.08.274-.106-.18-.008-.361,0-.541,0h-4.319l-8.541,0-23.84.013q-27.282.014-54.565.013-10.649,0-21.3-.017c-3.089-.007-3.093,4.793,0,4.8q13.365.029,26.73.018,18.531,0,37.061-.009,16.931-.006,33.862-.016,5.733,0,11.466-.006h3.678c1.284,0,2.571-.2,3.317-1.41a4.576,4.576,0,0,0,.188-3.574l-1.474-6.722c-.572-2.607-1.391-5.045-3.959-6.387-1.763-.921-3.569-.831-5.463-.831H13.767c-1.557,0-3.114-.009-4.67,0a7.654,7.654,0,0,0-4.187,1.13c-2.073,1.344-2.858,3.433-3.484,5.714a44.894,44.894,0,0,0-1.31,6.78c-.233,2.028-.356,4.533,2.118,5.184,1.664.438,3.763.126,5.463.13C10.786,290.272,10.791,285.472,7.7,285.465Z"/>
<path class="d" d="M277.312,20.583c-16.422.025-31.337.044-34.764-.009h-12.34c4.024,14.1,9.635,33.415,13.618,46.981,6.041,0,13.139,0,13.139,0,4.98,0,44.881-.169,56.844-.2a3.151,3.151,0,0,0,3.067-2.443c1.827-7.868,7.092-30.75,9.292-40.488a3.159,3.159,0,0,0-3.071-3.855C314.358,20.524,294.964,20.556,277.312,20.583Z"/>
<path class="b" d="M242.548,22.974c9.671.146,19.351.031,29.022.018q20.719-.03,41.439-.045,3.816,0,7.631.012c.74,0,2.229-.269,2.858.129.835.529-.041,2.451-.212,3.2q-2.57,11.31-5.177,22.611-1.231,5.35-2.466,10.7-.457,1.983-.918,3.967c-.3,1.31-.583,1.385-1.865,1.388q-8.7.024-17.41.06-18.4.069-36.8.134l-1.683,0c-3.088,0-3.094,4.8,0,4.8,11.538,0,23.076-.078,34.613-.122q9.693-.036,19.387-.068a23.035,23.035,0,0,0,3.817-.112,5.72,5.72,0,0,0,4.529-4.623q1.062-4.578,2.116-9.156,2.778-12.054,5.533-24.113.561-2.458,1.12-4.918c.48-2.118.959-4.21-.352-6.163-2.011-3-5.625-2.516-8.765-2.523-13.569-.03-27.137.007-40.706.028-11.392.017-22.785.082-34.177.007-.51,0-1.021-.007-1.532-.015-3.09-.047-3.091,4.753,0,4.8Z"/>
<path class="b" d="M249.31,45.514c7.651,0,15.3-.033,22.954-.055q15.012-.042,30.026-.087c2.721-.008,5.441-.02,8.162-.02,3.088,0,3.093-4.8,0-4.8-6.724,0-13.448.035-20.172.055q-15.4.045-30.8.087-5.085.014-10.169.02c-3.088,0-3.094,4.8,0,4.8Z"/>
<path class="b" d="M261.94,20.786c1.417,12.776,2.648,25.572,4.048,38.35.289,2.631.569,5.264.911,7.889a2.479,2.479,0,0,0,2.4,2.4,2.413,2.413,0,0,0,2.4-2.4c-1.678-12.864-2.813-25.812-4.161-38.714-.262-2.509-.52-5.018-.8-7.525a2.471,2.471,0,0,0-2.4-2.4,2.416,2.416,0,0,0-2.4,2.4Z"/>
<path class="b" d="M292.408,29.576q-1.232,15.351-2.4,30.707c-.177,2.364-.352,4.728-.511,7.093a2.4,2.4,0,1,0,4.8,0c.695-10.377,1.556-20.745,2.381-31.113q.266-3.343.534-6.687a2.42,2.42,0,0,0-2.4-2.4,2.448,2.448,0,0,0-2.4,2.4Z"/>
<path class="b" d="M210.1,4.9q3.024,0,6.048.007l3.389,0a17.675,17.675,0,0,1,3.229,0c1.145.23,1.41,3.069,1.691,4.085,1.28,4.63,2.6,9.25,3.917,13.869q5.215,18.251,10.55,36.466,2.25,7.705,4.521,15.406.811,2.748,1.631,5.5a13.432,13.432,0,0,0,1,2.854,5.752,5.752,0,0,0,5.069,2.8c10.193.167,20.4.036,30.6.054q14.562.025,29.125.048h1.264c3.088,0,3.094-4.8,0-4.8q-12.929,0-25.857-.041L253.415,81.1c-.753,0-1.519.039-2.27,0-.906-.051-.969-.547-1.2-1.326q-.769-2.563-1.527-5.131-2.229-7.532-4.428-15.072-5.334-18.253-10.578-36.532-2.055-7.18-4.069-14.371c-.438-1.577-.769-3.233-1.323-4.774-1.764-4.9-7.751-3.775-11.874-3.782Q213.119.1,210.1.1c-3.089,0-3.094,4.8,0,4.8Z"/>
<path class="a" d="M258.852,93.006a7.406,7.406,0,0,1,7.553,7.507c0,4.686-2.922,7.648-7.554,7.648-4.739,0-7.553-2.962-7.553-7.648A7.4,7.4,0,0,1,258.852,93.006Z"/>
<path class="a" d="M303.705,93.006a7.406,7.406,0,0,1,7.553,7.507c0,4.686-2.921,7.648-7.553,7.648-4.74,0-7.554-2.962-7.554-7.648A7.4,7.4,0,0,1,303.705,93.006Z"/>
<path class="b" d="M258.852,95.406c.22,0,.439.02.659.026.68.019-.445-.116.207.025a9.571,9.571,0,0,1,1,.256c.087.028.687.291.173.049.119.056.238.112.354.173.174.09.343.188.509.292.105.066.726.574.3.191.239.213.475.424.692.66.006,0,.418.476.181.194s.142.207.15.219c.19.284.314.646.519.913s-.16-.5.021.046c.082.246.168.488.233.74.045.173.168,1.119.123.522.025.338.045.674.039,1.013q-.006.311-.03.621c-.008.107-.122.755-.009.155a10.594,10.594,0,0,1-.256,1.112c-.054.175-.12.345-.178.519.024-.073.225-.464.031-.08-.158.314-.338.607-.515.909-.063.109-.278.349.072-.072-.109.131-.216.262-.333.386-.1.1-.2.2-.3.3s-.62.464-.1.112c-.238.162-.473.323-.726.461-.154.085-.313.158-.471.235.557-.271.026-.02-.094.02a7.744,7.744,0,0,1-.895.245c-.1.022-.739.118-.126.041q-.3.037-.6.055a10.724,10.724,0,0,1-1.255,0c-.137-.008-.273-.022-.409-.032-.657-.053.477.124-.148-.026-.308-.074-.616-.133-.918-.226-.175-.054-.345-.119-.517-.181.582.209-.021-.022-.15-.09a8.1,8.1,0,0,1-.8-.5c.53.366-.166-.173-.279-.289s-.22-.257-.338-.376c.345.345.151.214.066.081-.22-.344-.415-.686-.6-1.05.036.07.178.491.037.08-.059-.173-.122-.344-.174-.519-.09-.3-.147-.612-.216-.92-.14-.625.018.508-.021-.145-.012-.2-.033-.408-.041-.614a10.9,10.9,0,0,1,.034-1.226c-.04.531-.018.095.016-.049.051-.223.1-.447.159-.667.054-.187.119-.369.183-.553.2-.58-.23.4.064-.133.2-.365.434-.7.642-1.062.177-.3-.372.38.041-.035.18-.181.345-.373.533-.547.093-.087.192-.168.288-.252-.435.382.19-.124.3-.19q.207-.129.422-.244c.108-.058.758-.325.235-.13a8.339,8.339,0,0,1,1.168-.349c.086-.018.758-.1.195-.046.291-.027.58-.041.872-.045a2.4,2.4,0,1,0,0-4.8,9.947,9.947,0,0,0-9.566,7.11c-1.09,3.781.015,8.374,3.186,10.825a11.066,11.066,0,0,0,11.531.792c3.485-1.851,5.173-6,4.739-9.818a9.943,9.943,0,0,0-9.89-8.909,2.4,2.4,0,1,0,0,4.8Z"/>
<path class="b" d="M303.705,95.406c.22,0,.439.02.659.026.68.019-.444-.116.207.025a9.525,9.525,0,0,1,1,.256c.087.028.686.291.172.049.119.056.238.112.355.173.173.09.343.188.508.292.106.066.727.574.3.191.239.213.476.424.693.66,0,0,.418.476.181.194s.142.207.149.219c.19.284.314.646.519.913s-.16-.5.022.046c.081.246.167.488.233.74.045.173.167,1.119.123.522.025.338.045.674.038,1.013q0,.311-.03.621c-.008.107-.122.755-.009.155a10.114,10.114,0,0,1-.256,1.112c-.053.175-.119.345-.178.519.025-.073.226-.464.032-.08-.158.314-.338.607-.515.909-.063.109-.279.349.072-.072-.109.131-.217.262-.333.386-.1.1-.2.2-.3.3s-.619.464-.1.112a8.554,8.554,0,0,1-.726.461c-.154.085-.312.158-.47.235.557-.271.025-.02-.094.02a7.76,7.76,0,0,1-.9.245c-.1.022-.739.118-.125.041q-.3.037-.6.055a10.741,10.741,0,0,1-1.256,0c-.136-.008-.272-.022-.409-.032-.656-.053.477.124-.147-.026-.308-.074-.616-.133-.919-.226-.175-.054-.344-.119-.516-.181.581.209-.022-.022-.151-.09a8.2,8.2,0,0,1-.8-.5c.529.366-.166-.173-.279-.289s-.22-.257-.339-.376c.345.345.152.214.066.081-.22-.344-.415-.686-.6-1.05.036.07.177.491.036.08-.059-.173-.121-.344-.173-.519-.09-.3-.148-.612-.217-.92-.139-.625.018.508-.021-.145-.012-.2-.032-.408-.04-.614a10.9,10.9,0,0,1,.033-1.226c-.04.531-.017.095.016-.049.052-.223.1-.447.16-.667.053-.187.118-.369.182-.553.2-.58-.23.4.064-.133.2-.365.434-.7.643-1.062.176-.3-.372.38.04-.035.18-.181.345-.373.533-.547.094-.087.192-.168.288-.252-.434.382.191-.124.3-.19.138-.086.278-.167.422-.244.108-.058.757-.325.234-.13a8.352,8.352,0,0,1,1.169-.349c.085-.018.757-.1.194-.046.291-.027.58-.041.872-.045a2.4,2.4,0,1,0,0-4.8,9.948,9.948,0,0,0-9.566,7.11c-1.089,3.781.015,8.374,3.187,10.825a11.064,11.064,0,0,0,11.53.792c3.485-1.851,5.174-6,4.739-9.818a9.943,9.943,0,0,0-9.89-8.909,2.4,2.4,0,1,0,0,4.8Z"/>
<path class="a" d="M31.041,9.361l-14.884,0A6.47,6.47,0,0,0,9.684,15.84c.008,19.12.023,52.04.029,65.919a6.467,6.467,0,0,0,6.476,6.468c23.853-.01,66.129-.032,89.635-.04a6.471,6.471,0,0,0,6.472-6.478c-.008-20.441-.02-47.643-.028-65.911a6.469,6.469,0,0,0-6.477-6.47l-13.069,0"/>
<path class="b" d="M71.083,6.943,52.5,6.95c-3.088,0-3.093,4.8,0,4.8l18.579-.007c3.089,0,3.094-4.8,0-4.8Z"/>
<path class="c" d="M36.013,29.641l-4.954.009a3.1,3.1,0,0,0-2.121.879,3,3,0,0,0,0,4.242,3.116,3.116,0,0,0,2.121.879l4.954-.009a3.1,3.1,0,0,0,2.121-.879,3,3,0,0,0,0-4.242,3.116,3.116,0,0,0-2.121-.879Z"/>
<path class="b" d="M54.524,29.641l-4.954.009a3.1,3.1,0,0,0-2.121.879,3,3,0,0,0,0,4.242,3.116,3.116,0,0,0,2.121.879l4.954-.009a3.1,3.1,0,0,0,2.121-.879,3,3,0,0,0,0-4.242,3.116,3.116,0,0,0-2.121-.879Z"/>
<path class="b" d="M73.035,29.641l-4.954.009a3.1,3.1,0,0,0-2.121.879,3,3,0,0,0,0,4.242,3.116,3.116,0,0,0,2.121.879l4.954-.009a3.1,3.1,0,0,0,2.121-.879,3,3,0,0,0,0-4.242,3.116,3.116,0,0,0-2.121-.879Z"/>
<path class="b" d="M91.546,29.641l-4.953.009a3.1,3.1,0,0,0-2.122.879,3,3,0,0,0,0,4.242,3.118,3.118,0,0,0,2.122.879l4.953-.009a3.1,3.1,0,0,0,2.121-.879,3,3,0,0,0,0-4.242,3.116,3.116,0,0,0-2.121-.879Z"/>
<path class="c" d="M36.013,47.456l-4.954.009a3.094,3.094,0,0,0-2.121.878,3,3,0,0,0,0,4.243,3.116,3.116,0,0,0,2.121.879l4.954-.009a3.1,3.1,0,0,0,2.121-.879,3,3,0,0,0,0-4.243,3.11,3.11,0,0,0-2.121-.878Z"/>
<path class="b" d="M54.524,47.456l-4.954.009a3.094,3.094,0,0,0-2.121.878,3,3,0,0,0,0,4.243,3.116,3.116,0,0,0,2.121.879l4.954-.009a3.1,3.1,0,0,0,2.121-.879,3,3,0,0,0,0-4.243,3.11,3.11,0,0,0-2.121-.878Z"/>
<path class="b" d="M73.035,47.456l-4.954.009a3.094,3.094,0,0,0-2.121.878,3,3,0,0,0,0,4.243,3.116,3.116,0,0,0,2.121.879l4.954-.009a3.1,3.1,0,0,0,2.121-.879,3,3,0,0,0,0-4.243,3.11,3.11,0,0,0-2.121-.878Z"/>
<path class="b" d="M91.546,47.456l-4.953.009a3.1,3.1,0,0,0-2.122.878,3,3,0,0,0,0,4.243,3.118,3.118,0,0,0,2.122.879l4.953-.009a3.1,3.1,0,0,0,2.121-.879,3,3,0,0,0,0-4.243,3.11,3.11,0,0,0-2.121-.878Z"/>
<path class="c" d="M36.013,65.27l-4.954.009a3.1,3.1,0,0,0-2.121.879,3,3,0,0,0,0,4.243,3.11,3.11,0,0,0,2.121.878l4.954-.009a3.094,3.094,0,0,0,2.121-.878,3,3,0,0,0,0-4.243,3.116,3.116,0,0,0-2.121-.879Z"/>
<path class="b" d="M54.524,65.27l-4.954.009a3.1,3.1,0,0,0-2.121.879,3,3,0,0,0,0,4.243,3.11,3.11,0,0,0,2.121.878l4.954-.009a3.094,3.094,0,0,0,2.121-.878,3,3,0,0,0,0-4.243,3.116,3.116,0,0,0-2.121-.879Z"/>
<path class="b" d="M73.035,65.27l-4.954.009a3.1,3.1,0,0,0-2.121.879,3,3,0,0,0,0,4.243,3.11,3.11,0,0,0,2.121.878l4.954-.009a3.094,3.094,0,0,0,2.121-.878,3,3,0,0,0,0-4.243,3.116,3.116,0,0,0-2.121-.879Z"/>
<path class="b" d="M91.546,65.27l-4.953.009a3.1,3.1,0,0,0-2.122.879,3,3,0,0,0,0,4.243,3.113,3.113,0,0,0,2.122.878l4.953-.009a3.094,3.094,0,0,0,2.121-.878,3,3,0,0,0,0-4.243,3.116,3.116,0,0,0-2.121-.879Z"/>
<path class="b" d="M31.041,6.961q-6.729,0-13.459,0c-2.325,0-4.524.208-6.486,1.6a9.014,9.014,0,0,0-3.789,6.764c-.173,2.207-.021,4.483-.02,6.7l0,7.178q0,7.77.007,15.539Q7.3,59.353,7.31,73.966l0,5.549c0,2.2-.023,4.323,1.008,6.344A8.871,8.871,0,0,0,14.2,90.4a31.981,31.981,0,0,0,6.7.223L83.075,90.6l14.661-.007,6.391,0c2.484,0,4.813-.164,6.887-1.695a9.017,9.017,0,0,0,3.673-6.84c.148-2.682.007-5.41.006-8.095q0-8.742-.008-17.483-.007-17.18-.014-34.36a61.867,61.867,0,0,0-.083-7.335,8.957,8.957,0,0,0-4.133-6.531,10.89,10.89,0,0,0-6.07-1.321l-6.126,0H92.722c-3.089,0-3.094,4.8,0,4.8q5.6,0,11.2,0c1.533,0,3.091-.157,4.382.844,1.625,1.258,1.568,3.056,1.569,4.921q.006,15.65.013,31.3,0,8.492.007,16.983c0,5.306.138,10.631.007,15.935a4.125,4.125,0,0,1-2.725,3.854c-1.639.581-3.824.225-5.549.226l-12.978,0-59.621.027c-4.183,0-8.368.032-12.552.006a4.216,4.216,0,0,1-4.025-2.412c-.632-1.433-.333-3.338-.334-4.874Q12.106,65.772,12.1,53q-.008-14.664-.013-29.327l0-6.362c0-1.792.01-3.5,1.563-4.7,1.377-1.069,3.1-.847,4.737-.847h6.63l6.026,0c3.088,0,3.094-4.8,0-4.8Z"/>
<path class="b" d="M80.518,4.234q0,4.776,0,9.553a2.4,2.4,0,1,0,4.8,0q0-4.776,0-9.553a2.4,2.4,0,1,0-4.8,0Z"/>
<path class="b" d="M38.037,4.234q0,4.776.005,9.553a2.4,2.4,0,1,0,4.8,0q0-4.776,0-9.553a2.4,2.4,0,0,0-4.8,0Z"/>
<path class="a" d="M106,42.6c-18.984,0-32.1,14.7-32.1,31.909,0,19.25,13.4,32.507,32.106,32.507,19.424,0,32.107-13.381,32.107-32.507C138.107,57.184,124.916,42.6,106,42.6Z"/>
<path class="b" d="M106,40.2a34.944,34.944,0,0,0-20.942,6.778,34.127,34.127,0,0,0-11.99,17.06c-4.178,13.382-.14,29.466,11.085,38.205,11.113,8.651,27.9,9.575,40.1,2.618,12.53-7.144,17.873-22.115,15.8-35.963A33.862,33.862,0,0,0,112,40.688a40.816,40.816,0,0,0-6-.49c-3.089-.015-3.093,4.785,0,4.8a30.449,30.449,0,0,1,18.237,5.9,28.851,28.851,0,0,1,10.11,14.525c3.536,11.51.365,25.324-9.088,32.993-9.241,7.5-24.043,8.228-34.417,2.526C80.028,95,74.854,82.262,76.575,70.2a28.923,28.923,0,0,1,24.343-24.825A32.248,32.248,0,0,1,106,45C109.087,44.983,109.094,40.183,106,40.2Z"/>
<path class="b" d="M106.018,77.216h10.968a2.4,2.4,0,0,0,0-4.8H106.018a2.4,2.4,0,0,0,0,4.8Z"/>
<path class="b" d="M103.618,58.191q0,8.3,0,16.606a2.4,2.4,0,0,0,4.8,0q-.013-8.3,0-16.606a2.4,2.4,0,0,0-4.8,0Z"/>
</g>
</svg>